#!OML:ASF E:\motion texture\Top Level 1\Subject 1\Session 1\male.ASF
:FULLY-SPECIFIED
:DEGREES
301
root -9.73488 18.0849 6.21786 137.553 -85.6606 -132.926
lowerback -0.632834 -0.896451 -0.758471
upperback -1.31343 -1.22076 3.57142
thorax -0.89936 -0.607762 4.10199
lowerneck -5.83709 -10.2339 -9.97255
upperneck 12.4903 -15.2143 13.9422
head 6.59569 -7.14132 4.72048
rclavicle -5.59082e-015 -2.14687e-014
rhumerus -36.2454 20.7779 -95.8951
rradius 76.1139
rwrist -21.0781
rhand -7.37558 -38.2785
rfingers 7.12502
rthumb 18.5096 -67.4179
lclavicle -5.59082e-015 -2.14687e-014
lhumerus -27.3586 -26.4289 107.869
lradius 54.4968
lwrist 11.067
lhand -14.0209 37.1641
lfingers 7.12502
lthumb 12.1089 66.7937
rfemur -29.2887 -6.73521 20.491
rtibia 57.8767
rfoot -5.39453 -19.3392
rtoes 5.7808
lfemur -7.04412 -1.76135 -19.3228
ltibia 15.1895
lfoot -8.40656 2.38404
ltoes 0.94209
302
root -9.84478 18.08 6.2267 137.031 -85.89 -132.37
lowerback -0.624133 -1.01872 -0.956238
upperback -1.34558 -1.38326 3.611
thorax -0.919446 -0.686694 4.25567
lowerneck -5.7131 -10.3941 -10.2087
upperneck 12.4007 -15.449 14.1427
head 6.61143 -7.26114 4.79837
rclavicle -3.36692e-015 1.51076e-014
rhumerus -36.3161 22.0856 -96.8993
rradius 75.9866
rwrist -21.5843
rhand -6.10224 -37.7726
rfingers 7.12502
rthumb 19.7341 -66.7909
lclavicle -3.36692e-015 1.51076e-014
lhumerus -27.4912 -28.0996 109.053
lradius 54.6676
lwrist 11.0297
lhand -12.9412 35.9942
lfingers 7.12502
lthumb 13.1498 65.5595
rfemur -29.8494 -6.78481 20.3814
rtibia 56.6888
rfoot -5.88559 -19.3209
rtoes 5.32643
lfemur -6.65679 -1.82528 -19.5715
ltibia 15.1409
lfoot -8.73333 2.29056
ltoes 0.819848
303
root -9.95309 18.0742 6.23595 136.381 -86.1081 -131.663
lowerback -0.619436 -1.14985 -1.13973
upperback -1.38881 -1.55775 3.65465
thorax -0.946614 -0.771579 4.40568
lowerneck -5.58138 -10.5583 -10.4379
upperneck 12.331 -15.6941 14.3368
head 6.63349 -7.38625 4.8718
rclavicle 2.38666e-014 -1.74931e-014
rhumerus -36.2987 23.4416 -97.7316
rradius 75.8876
rwrist -22.1078
rhand -4.9758 -37.3486
rfingers 7.12502
rthumb 20.8167 -66.2519
lclavicle 2.38666e-014 -1.74931e-014
lhumerus -27.5879 -29.6473 110.14
lradius 54.9047
lwrist 10.8828
lhand -11.7274 34.5214
lfingers 7.12502
lthumb 14.3196 64.0076
rfemur -30.3985 -6.81989 20.2806
rtibia 55.4129
rfoot -6.33531 -19.3083
rtoes 4.89326
lfemur -6.31407 -1.90648 -19.806
ltibia 15.1168
lfoot -9.07834 2.20597
ltoes 0.621931
304
root -10.0602 18.0679 6.24508 135.833 -86.2985 -131.048
lowerback -0.609043 -1.27656 -1.31248
upperback -1.43472 -1.72645 3.69835
thorax -0.979235 -0.85349 4.54999
lowerneck -5.47796 -10.7411 -10.6305
upperneck 12.2947 -15.9677 14.5
head 6.67032 -7.52326 4.92394
rclavicle 3.57812e-015 -6.36111e-015
rhumerus -36.1904 24.7709 -98.3492
rradius 75.8395
rwrist -22.5505
rhand -3.96784 -36.9832
rfingers 7.12502
rthumb 21.7848 -65.7772
lclavicle 3.57812e-015 -6.36111e-015
lhumerus -27.6453 -31.0958 111.122
lradius 55.2101
lwrist 10.6155
lhand -10.5966 32.7766
lfingers 7.12502
lthumb 15.4091 62.1823
rfemur -30.9186 -6.81817 20.195
rtibia 54.0488
rfoot -6.73495 -19.3043
rtoes 4.49698
lfemur -5.98965 -1.96992 -20.0215
ltibia 15.1041
lfoot -9.4321 2.12089
ltoes 0.378281
305
root -10.1678 18.0614 6.25491 135.71 -86.4327 -130.868
lowerback -0.602833 -1.38509 -1.4554
upperback -1.47484 -1.87123 3.74194
thorax -1.00545 -0.923849 4.67718
lowerneck -5.3748 -10.9312 -10.8071
upperneck 12.2891 -16.2571 14.6486
head 6.71742 -7.66747 4.96623
rclavicle 1.71203e-014 -1.51076e-014
rhumerus -35.9951 25.9883 -98.7039
rradius 75.8626
rwrist -22.8163
rhand -3.05904 -36.6284
rfingers 7.12502
rthumb 22.6573 -65.3185
lclavicle 1.71203e-014 -1.51076e-014
lhumerus -27.6575 -32.4545 111.987
lradius 55.5566
lwrist 10.0666
lhand -9.75206 31.1341
lfingers 7.12502
lthumb 16.2224 60.4754
rfemur -31.3828 -6.76148 20.1303
rtibia 52.593
rfoot -7.09472 -19.2903
rtoes 4.10324
lfemur -5.64104 -2.01201 -20.2149
ltibia 15.0726
lfoot -9.77438 2.06855
ltoes 0.112908
306
root -10.2784 18.0551 6.26696 136.353 -86.5023 -131.481
lowerback -0.605959 -1.46481 -1.54964
upperback -1.49648 -1.97788 3.77629
thorax -1.01199 -0.976099 4.76662
lowerneck -5.27393 -11.1386 -10.9639
upperneck 12.3064 -16.5746 14.7793
head 6.77375 -7.82475 4.9952
rclavicle -1.14301e-014 8.74653e-015
rhumerus -35.7116 27.001 -98.7452
rradius 75.9813
rwrist -22.8895
rhand -2.22292 -36.2728
rfingers 7.12502
rthumb 23.4596 -64.8626
lclavicle -1.14301e-014 8.74653e-015
lhumerus -27.6161 -33.7456 112.718
lradius 55.9262
lwrist 9.20188
lhand -9.07417 30.105
lfingers 7.12502
lthumb 16.875 59.3918
rfemur -31.7581 -6.65252 20.0686
rtibia 51.034
rfoot -7.40039 -19.2532
rtoes 3.72384
lfemur -5.217 -2.06176 -20.409
ltibia 14.9858
lfoot -10.091 2.09774
ltoes -0.129252
